<svg xmlns="http://www.w3.org/2000/svg" id="SvgjsSvg26994" width="4096" height="1532.24711578879" version="1.1" xmlns:xlink="http://www.w3.org/1999/xlink" xmlns:svgjs="http://svgjs.com/svgjs"><defs id="SvgjsDefs26995"></defs><g id="SvgjsG26996" transform="translate(328, 328) scale(34.4)" opacity="1"><defs id="SvgjsDefs9285"></defs><g id="SvgjsG9286" transform="scale(0.22614708035976935)" opacity="1"><g id="SvgjsG9287" class="6069eYQHm" transform="translate(-0.80221709246901, -1.0652027801956303) scale(1.1476639377239086)" light-content="false" non-strokable="false" fill="#ffffff"><path d="M47 1.732l37.301 21.536a6 6 0 0 1 3 5.196v43.072a6 6 0 0 1-3 5.196L47 98.268a6 6 0 0 1-6 0L3.699 76.732a6 6 0 0 1-3-5.196V28.464a6 6 0 0 1 3-5.196L41 1.732a6 6 0 0 1 6 0z"></path></g><g id="SvgjsG9288" class="PqJQS5Jz9A" transform="translate(4.99362499220352, 11.883364704334337) scale(0.8922215373681097)" light-content="true" non-strokable="false" fill="#000000"><path d="M3.594 69.141H27.11v16.797a7.036 7.036 0 0 0-4.61 6.64c0 3.907 3.203 7.11 7.11 7.11s7.11-3.203 7.11-7.11c0-3.437-2.423-6.25-5.626-6.952V69.14h39.062v16.8a7.036 7.036 0 0 0-4.61 6.64c0 3.906 3.204 7.11 7.11 7.11s7.11-3.204 7.11-7.11c0-3.437-2.422-6.25-5.625-6.953V69.142H93.75c1.093 0 1.953-.86 1.953-1.953s-.86-1.953-1.953-1.953h-7.891V49.533c3.203-.703 5.625-3.516 5.625-6.953 0-3.907-3.203-7.11-7.11-7.11s-7.109 3.203-7.109 7.11c0 3.047 1.953 5.625 4.61 6.64v16.016H62.344V49.533c3.203-.703 5.625-3.515 5.625-6.953 0-.39-.079-.86-.157-1.25l19.062-13.594c1.25 1.016 2.813 1.64 4.453 1.64 3.907 0 7.11-3.202 7.11-7.109s-3.203-7.109-7.11-7.109-7.109 3.203-7.109 7.11c0 .78.156 1.562.39 2.265L66.016 37.814c-.391-.39-.782-.781-1.25-1.094l7.343-22.188h.47c3.905 0 7.109-3.203 7.109-7.11S76.484.314 72.577.314s-7.11 3.203-7.11 7.11a6.957 6.957 0 0 0 2.97 5.703L61.015 35.47h-.157l-7.265-22.031c2.031-1.25 3.437-3.516 3.437-6.094 0-3.906-3.203-7.11-7.109-7.11s-7.11 3.204-7.11 7.11c0 3.828 3.126 6.953 6.954 7.031l7.265 22.266a7.89 7.89 0 0 0-1.25 1.016L37.733 24.767a6.477 6.477 0 0 0 .469-2.5c0-3.906-3.203-7.11-7.11-7.11s-7.109 3.204-7.109 7.11 3.203 7.11 7.11 7.11c1.64 0 3.125-.548 4.297-1.485l18.516 13.203c-.079.469-.157 1.015-.157 1.484 0 3.047 1.953 5.625 4.61 6.64v16.017H38.828V49.533c3.203-.703 5.625-3.516 5.625-6.953 0-3.906-3.203-7.11-7.11-7.11s-7.11 3.203-7.11 7.11c0 3.047 1.954 5.625 4.61 6.64v16.016h-19.53V49.533c3.202-.703 5.624-3.515 5.624-6.953 0-3.906-3.203-7.11-7.11-7.11s-7.109 3.204-7.109 7.11c0 3.047 1.954 5.625 4.61 6.64v16.017H3.593c-1.093 0-1.953.86-1.953 1.953s.86 1.953 1.953 1.953zm29.14 23.438c0 1.719-1.405 3.203-3.202 3.203s-3.203-1.406-3.203-3.203 1.406-3.203 3.203-3.203 3.203 1.406 3.203 3.203zm42.97 0c0 1.719-1.406 3.203-3.203 3.203s-3.203-1.406-3.203-3.203 1.406-3.203 3.203-3.203 3.203 1.406 3.203 3.203zm8.515-53.125c1.72 0 3.204 1.406 3.204 3.203s-1.407 3.203-3.204 3.203-3.203-1.406-3.203-3.203 1.485-3.203 3.203-3.203zm7.032-20.312c1.718 0 3.203 1.406 3.203 3.203s-1.406 3.203-3.203 3.203-3.203-1.406-3.203-3.203 1.484-3.203 3.203-3.203zM72.5 4.298c1.718 0 3.203 1.406 3.203 3.203s-1.406 3.203-3.203 3.203-3.203-1.406-3.203-3.203 1.484-3.203 3.203-3.203zM46.72 7.423c0-1.719 1.406-3.203 3.203-3.203s3.203 1.406 3.203 3.203-1.406 3.203-3.203 3.203S46.72 9.22 46.72 7.423zM31.095 25.47c-1.72 0-3.203-1.406-3.203-3.203s1.406-3.203 3.203-3.203 3.203 1.406 3.203 3.203-1.406 3.203-3.203 3.203zm29.688 13.984c1.718 0 3.203 1.406 3.203 3.203s-1.406 3.203-3.203 3.203-3.203-1.406-3.203-3.203 1.484-3.203 3.203-3.203zm-23.438 0c1.718 0 3.203 1.406 3.203 3.203s-1.407 3.203-3.203 3.203-3.203-1.406-3.203-3.203 1.484-3.203 3.203-3.203zm-23.438 0c1.718 0 3.203 1.406 3.203 3.203s-1.406 3.203-3.203 3.203-3.203-1.406-3.203-3.203 1.484-3.203 3.203-3.203z"></path></g><g id="SvgjsG9289" class="text" transform="translate(264.3343446052523, 70.72602529824738) scale(1)" light-content="false" fill="#ffffff"><path d="M-124.72 -29.93L-133.39 -29.93C-133.51 -29.93 -133.66 -29.82 -133.84 -29.62C-134.02 -29.41 -134.11 -28.96 -134.11 -28.28C-134.11 -27.51 -133.93 -27.12 -133.59 -27.12L-130.55 -27.12L-138 -6.92L-145.38 -26.15C-145.49 -26.36 -145.54 -26.53 -145.54 -26.64C-145.54 -26.96 -144.72 -27.12 -143.07 -27.12C-142.94 -27.12 -142.77 -27.23 -142.57 -27.45C-142.36 -27.67 -142.26 -28.13 -142.26 -28.83C-142.26 -29.56 -142.42 -29.93 -142.76 -29.93L-152.4 -29.93C-152.55 -29.93 -152.71 -29.82 -152.9 -29.61C-153.08 -29.4 -153.18 -28.96 -153.18 -28.32C-153.18 -27.52 -153 -27.12 -152.66 -27.12L-150.47 -27.12L-139.73 0C-139.6 0.27 -139.21 0.4 -138.56 0.4C-137.86 0.4 -137.45 0.27 -137.35 0L-127.35 -25.99C-127.08 -26.74 -126.44 -27.12 -125.44 -27.12C-125.07 -27.12 -124.82 -27.18 -124.7 -27.28C-124.38 -27.6 -124.22 -28.1 -124.22 -28.79C-124.22 -29.55 -124.39 -29.93 -124.72 -29.93Z M-118.45 0L-109.78 0C-109.66 0 -109.51 -0.1 -109.33 -0.31C-109.15 -0.51 -109.06 -0.96 -109.06 -1.65C-109.06 -2.42 -109.23 -2.8 -109.58 -2.8L-113 -2.8L-110.23 -9.92L-100.15 -9.92L-97.79 -3.78C-97.68 -3.57 -97.63 -3.4 -97.63 -3.28C-97.63 -2.96 -98.45 -2.8 -100.09 -2.8C-100.24 -2.8 -100.41 -2.69 -100.61 -2.47C-100.81 -2.24 -100.91 -1.78 -100.91 -1.09C-100.91 -0.36 -100.74 0 -100.41 0L-90.77 0C-90.64 0 -90.47 -0.1 -90.28 -0.31C-90.09 -0.51 -89.99 -0.95 -89.99 -1.61C-89.99 -2.41 -90.16 -2.8 -90.51 -2.8L-92.84 -2.8L-103.43 -29.93C-103.54 -30.19 -104.04 -30.32 -104.92 -30.32C-105.34 -30.32 -105.59 -30.19 -105.7 -29.93L-115.82 -3.94C-116.13 -3.18 -116.77 -2.8 -117.75 -2.8C-118.12 -2.8 -118.36 -2.75 -118.47 -2.64C-118.78 -2.33 -118.94 -1.82 -118.94 -1.13C-118.94 -0.38 -118.78 0 -118.45 0ZM-109.06 -12.98L-105.16 -23.01L-101.33 -12.98Z M-67.85 -2.8L-72.28 -2.8L-72.28 -12.51C-63.55 -12.51 -59.18 -15.56 -59.18 -21.67C-59.18 -24.23 -60.09 -26.25 -61.9 -27.72C-63.71 -29.18 -66.14 -29.91 -69.2 -29.93L-80.26 -29.93C-80.61 -29.93 -80.79 -29.53 -80.79 -28.75C-80.78 -28.57 -80.76 -28.38 -80.73 -28.2C-80.6 -27.48 -80.35 -27.12 -79.98 -27.12L-76.74 -27.12C-76.56 -27.12 -76.48 -27.02 -76.48 -26.82L-76.48 -3.66C-76.48 -3.34 -76.66 -3.12 -77.04 -3C-77.25 -2.94 -77.55 -2.89 -77.93 -2.86C-78.25 -2.82 -78.56 -2.8 -78.86 -2.8C-78.93 -2.8 -78.99 -2.81 -79.04 -2.82L-79.1 -2.82C-79.42 -2.82 -79.63 -2.77 -79.74 -2.66C-80.1 -2.31 -80.28 -1.81 -80.28 -1.17L-80.28 -1.11C-80.28 -0.37 -80.12 0 -79.8 0L-68.15 0C-68 0 -67.83 -0.11 -67.63 -0.32C-67.43 -0.53 -67.33 -0.95 -67.33 -1.59C-67.33 -2.4 -67.5 -2.8 -67.85 -2.8ZM-72.28 -15.57L-72.28 -26.86C-69.17 -26.86 -67 -26.49 -65.78 -25.73C-64.47 -24.92 -63.81 -23.42 -63.81 -21.22L-63.81 -21.16C-63.81 -18.97 -64.62 -17.45 -66.24 -16.58C-67.48 -15.92 -69.5 -15.58 -72.28 -15.57Z M-24.15 -11.04L-24.15 -27.12L-20.79 -27.12C-20.67 -27.12 -20.52 -27.22 -20.34 -27.41C-20.16 -27.6 -20.08 -28.02 -20.08 -28.65C-20.08 -29.5 -20.25 -29.93 -20.59 -29.93L-30.85 -29.93C-31.2 -29.93 -31.37 -29.53 -31.37 -28.75C-31.37 -28.57 -31.36 -28.38 -31.33 -28.2C-31.2 -27.48 -30.94 -27.12 -30.55 -27.12L-27.69 -27.12C-27.52 -27.12 -27.43 -27.02 -27.43 -26.8L-27.43 -11.43C-27.43 -8.48 -27.95 -6.32 -28.98 -4.95C-29.51 -4.25 -30.19 -3.73 -31.01 -3.39C-31.83 -3.05 -32.77 -2.88 -33.83 -2.88C-34.9 -2.88 -35.83 -3.03 -36.64 -3.32C-39.21 -4.25 -40.5 -6.97 -40.5 -11.49L-40.5 -27.12L-37.31 -27.12C-36.85 -27.12 -36.62 -27.59 -36.62 -28.53C-36.62 -29.46 -36.78 -29.93 -37.12 -29.93L-48.49 -29.93C-48.83 -29.93 -49.01 -29.52 -49.01 -28.71C-48.99 -28.55 -48.97 -28.38 -48.95 -28.2C-48.81 -27.48 -48.56 -27.12 -48.19 -27.12L-44.95 -27.12C-44.78 -27.12 -44.69 -27.02 -44.69 -26.8L-44.69 -11.31C-44.69 -7.36 -43.95 -4.47 -42.46 -2.62C-40.85 -0.61 -38.18 0.4 -34.47 0.4C-27.59 0.4 -24.15 -3.41 -24.15 -11.04Z M-3.96 -3.36C-3.59 -4.02 -3.4 -4.71 -3.4 -5.41C-3.4 -6.11 -3.69 -6.77 -4.28 -7.38C-4.86 -7.97 -5.58 -8.27 -6.44 -8.27C-7.29 -8.27 -8.01 -7.97 -8.61 -7.38C-9.21 -6.78 -9.5 -6.04 -9.5 -5.17C-9.5 -3.5 -8.38 -2.11 -6.14 -1.01C-4.22 -0.07 -2.13 0.4 0.12 0.4C3.05 0.4 5.47 -0.37 7.38 -1.9C9.29 -3.43 10.24 -5.42 10.24 -7.85C10.24 -9.99 9.5 -11.82 8.03 -13.34C6.85 -14.58 4.8 -15.92 1.87 -17.38L-0.82 -18.77C-1.64 -19.19 -2.33 -19.62 -2.88 -20.04C-4.04 -20.88 -4.61 -21.81 -4.61 -22.85L-4.61 -22.89C-4.6 -24.29 -4.05 -25.37 -2.96 -26.13C-2.43 -26.5 -1.81 -26.78 -1.09 -26.96C-0.38 -27.16 0.53 -27.26 1.63 -27.26C2.72 -27.26 3.65 -27.02 4.43 -26.55C4.05 -26 3.86 -25.38 3.86 -24.68C3.86 -23.81 4.16 -23.09 4.75 -22.49C5.34 -21.91 6.06 -21.61 6.92 -21.61C7.79 -21.61 8.52 -21.91 9.09 -22.49C9.67 -23.1 9.96 -23.83 9.96 -24.68C9.96 -26.45 8.91 -27.88 6.82 -28.95C5.07 -29.87 3.17 -30.32 1.13 -30.32L0.95 -30.32C-1.79 -30.32 -4.05 -29.72 -5.83 -28.51C-7.81 -27.16 -8.81 -25.26 -8.81 -22.81C-8.81 -19.61 -7 -17.06 -3.38 -15.15L-0.54 -13.7C0.36 -13.26 1.2 -12.82 1.97 -12.37C4.69 -10.8 6.04 -9.19 6.04 -7.52L6.04 -7.5C6.03 -6.04 5.44 -4.86 4.28 -3.98C3.72 -3.55 3.06 -3.23 2.31 -3.02C1.54 -2.78 0.52 -2.66 -0.76 -2.66C-2.03 -2.66 -3.1 -2.9 -3.96 -3.36Z M21.84 -28.67C21.86 -28.51 21.88 -28.34 21.9 -28.16C22.04 -27.47 22.29 -27.12 22.66 -27.12L25.92 -27.12C26.08 -27.12 26.16 -27.03 26.16 -26.84L26.16 -3.66C26.16 -3.34 25.97 -3.12 25.6 -3C25.39 -2.94 25.09 -2.89 24.69 -2.86C24.3 -2.82 23.94 -2.8 23.59 -2.8C23.24 -2.8 23.01 -2.75 22.92 -2.64C22.57 -2.25 22.4 -1.74 22.4 -1.13C22.4 -0.38 22.58 0 22.94 0L33.93 0C37.92 -0.01 41.26 -1.18 43.94 -3.5C46.97 -6.14 48.49 -9.98 48.49 -15.01L48.49 -15.07C48.48 -20.11 47.4 -23.8 45.25 -26.15C42.94 -28.67 39.17 -29.93 33.93 -29.93L22.36 -29.93C22.02 -29.93 21.84 -29.51 21.84 -28.67ZM30.36 -3.06L30.36 -26.86L33.78 -26.86C35.38 -26.86 36.8 -26.61 38.05 -26.09C41.92 -24.48 43.86 -20.58 43.86 -14.38C43.86 -10.76 42.74 -7.91 40.52 -5.83C38.53 -3.98 36.11 -3.06 33.28 -3.06Z M57.99 0L66.66 0C66.77 0 66.92 -0.1 67.1 -0.31C67.28 -0.51 67.37 -0.96 67.37 -1.65C67.37 -2.42 67.2 -2.8 66.85 -2.8L63.43 -2.8L66.2 -9.92L76.28 -9.92L78.65 -3.78C78.75 -3.57 78.8 -3.4 78.8 -3.28C78.8 -2.96 77.98 -2.8 76.34 -2.8C76.19 -2.8 76.02 -2.69 75.82 -2.47C75.62 -2.24 75.52 -1.78 75.52 -1.09C75.52 -0.36 75.69 0 76.02 0L85.66 0C85.8 0 85.96 -0.1 86.15 -0.31C86.34 -0.51 86.44 -0.95 86.44 -1.61C86.44 -2.41 86.27 -2.8 85.92 -2.8L83.6 -2.8L73 -29.93C72.89 -30.19 72.4 -30.32 71.51 -30.32C71.1 -30.32 70.84 -30.19 70.73 -29.93L60.61 -3.94C60.31 -3.18 59.66 -2.8 58.68 -2.8C58.31 -2.8 58.07 -2.75 57.97 -2.64C57.65 -2.33 57.49 -1.82 57.49 -1.13C57.49 -0.38 57.65 0 57.99 0ZM67.37 -12.98L71.27 -23.01L75.11 -12.98Z M110.63 -2.8L107.29 -2.8L107.29 -26.86L113.95 -26.86L114.83 -23.92C114.95 -23.58 115.26 -23.4 115.78 -23.4L115.9 -23.4C116.07 -23.4 116.24 -23.42 116.4 -23.46C117.13 -23.62 117.49 -23.94 117.49 -24.42L117.49 -24.5L116.74 -29.93L93.65 -29.93L92.89 -24.5L92.89 -24.42C92.89 -24.29 92.95 -24.15 93.05 -24.02C93.4 -23.62 93.9 -23.42 94.57 -23.4C95.11 -23.4 95.44 -23.58 95.56 -23.92L96.43 -26.86L103.1 -26.86L103.1 -3.66C103.1 -3.33 102.92 -3.11 102.56 -3C102.35 -2.94 102.05 -2.89 101.66 -2.86C101.35 -2.82 101.03 -2.8 100.73 -2.8C100.66 -2.8 100.6 -2.81 100.55 -2.82L100.49 -2.82C100.17 -2.82 99.96 -2.77 99.85 -2.66C99.5 -2.32 99.32 -1.81 99.32 -1.13C99.32 -0.38 99.48 0 99.79 0L110.35 0C110.49 0 110.65 -0.1 110.86 -0.31C111.07 -0.51 111.17 -0.9 111.17 -1.47C111.17 -2.36 110.99 -2.8 110.63 -2.8Z M124.74 0L133.41 0C133.53 0 133.68 -0.1 133.86 -0.31C134.04 -0.51 134.13 -0.96 134.13 -1.65C134.13 -2.42 133.95 -2.8 133.61 -2.8L130.19 -2.8L132.95 -9.92L143.03 -9.92L145.4 -3.78C145.51 -3.57 145.56 -3.4 145.56 -3.28C145.56 -2.96 144.74 -2.8 143.09 -2.8C142.95 -2.8 142.78 -2.69 142.58 -2.47C142.38 -2.24 142.28 -1.78 142.28 -1.09C142.28 -0.36 142.44 0 142.78 0L152.42 0C152.55 0 152.71 -0.1 152.91 -0.31C153.1 -0.51 153.2 -0.95 153.2 -1.61C153.2 -2.41 153.02 -2.8 152.68 -2.8L150.35 -2.8L139.75 -29.93C139.65 -30.19 139.15 -30.32 138.26 -30.32C137.85 -30.32 137.59 -30.19 137.49 -29.93L127.37 -3.94C127.06 -3.18 126.42 -2.8 125.44 -2.8C125.07 -2.8 124.83 -2.75 124.72 -2.64C124.4 -2.33 124.24 -1.82 124.24 -1.13C124.24 -0.38 124.41 0 124.74 0ZM134.13 -12.98L138.02 -23.01L141.86 -12.98Z"></path></g><rect id="SvgjsRect9290" width="330" height="3.61980069861119" fill="#ffffff" transform="translate(107.52433972243976, 26.390752322751183) scale(1)" light-content="false"></rect><rect id="SvgjsRect9291" width="330" height="3.61980069861119" fill="#ffffff" transform="translate(108.38019930138877, 81.39521715611417) scale(1)" light-content="false"></rect><rect id="SvgjsRect9292" width="4" height="30" fill="#ffffff" transform="translate(438.1900996506944, 41.4417424621372) scale(1)" light-content="false"></rect></g></g></svg>