<svg xmlns="http://www.w3.org/2000/svg" id="SvgjsSvg24434" width="4096" height="1532.2471157887903" version="1.1" xmlns:xlink="http://www.w3.org/1999/xlink" xmlns:svgjs="http://svgjs.com/svgjs"><defs id="SvgjsDefs24435"></defs><g id="SvgjsG24436" transform="translate(328, 327.99999999999994) scale(34.4)" opacity="1"><defs id="SvgjsDefs8836"></defs><g id="SvgjsG8837" transform="scale(0.21645021645021653)" opacity="1"><g id="SvgjsG8838" class="wO5CQM2p_" transform="translate(-0.8381560261377519, -1.112923344143458) scale(1.1990787212271161)" light-content="false" non-strokable="false" fill="#000000"><path d="M47 1.732l37.301 21.536a6 6 0 0 1 3 5.196v43.072a6 6 0 0 1-3 5.196L47 98.268a6 6 0 0 1-6 0L3.699 76.732a6 6 0 0 1-3-5.196V28.464a6 6 0 0 1 3-5.196L41 1.732a6 6 0 0 1 6 0z"></path></g><g id="SvgjsG8839" class="_jpDh4w1HZ" transform="translate(5.217336951280612, 12.415733635238224) scale(0.932192626179751)" light-content="true" non-strokable="false" fill="#ffffff"><path d="M3.594 69.141H27.11v16.797a7.036 7.036 0 0 0-4.61 6.64c0 3.907 3.203 7.11 7.11 7.11s7.11-3.203 7.11-7.11c0-3.437-2.423-6.25-5.626-6.952V69.14h39.062v16.8a7.036 7.036 0 0 0-4.61 6.64c0 3.906 3.204 7.11 7.11 7.11s7.11-3.204 7.11-7.11c0-3.437-2.422-6.25-5.625-6.953V69.142H93.75c1.093 0 1.953-.86 1.953-1.953s-.86-1.953-1.953-1.953h-7.891V49.533c3.203-.703 5.625-3.516 5.625-6.953 0-3.907-3.203-7.11-7.11-7.11s-7.109 3.203-7.109 7.11c0 3.047 1.953 5.625 4.61 6.64v16.016H62.344V49.533c3.203-.703 5.625-3.515 5.625-6.953 0-.39-.079-.86-.157-1.25l19.062-13.594c1.25 1.016 2.813 1.64 4.453 1.64 3.907 0 7.11-3.202 7.11-7.109s-3.203-7.109-7.11-7.109-7.109 3.203-7.109 7.11c0 .78.156 1.562.39 2.265L66.016 37.814c-.391-.39-.782-.781-1.25-1.094l7.343-22.188h.47c3.905 0 7.109-3.203 7.109-7.11S76.484.314 72.577.314s-7.11 3.203-7.11 7.11a6.957 6.957 0 0 0 2.97 5.703L61.015 35.47h-.157l-7.265-22.031c2.031-1.25 3.437-3.516 3.437-6.094 0-3.906-3.203-7.11-7.109-7.11s-7.11 3.204-7.11 7.11c0 3.828 3.126 6.953 6.954 7.031l7.265 22.266a7.89 7.89 0 0 0-1.25 1.016L37.733 24.767a6.477 6.477 0 0 0 .469-2.5c0-3.906-3.203-7.11-7.11-7.11s-7.109 3.204-7.109 7.11 3.203 7.11 7.11 7.11c1.64 0 3.125-.548 4.297-1.485l18.516 13.203c-.079.469-.157 1.015-.157 1.484 0 3.047 1.953 5.625 4.61 6.64v16.017H38.828V49.533c3.203-.703 5.625-3.516 5.625-6.953 0-3.906-3.203-7.11-7.11-7.11s-7.11 3.203-7.11 7.11c0 3.047 1.954 5.625 4.61 6.64v16.016h-19.53V49.533c3.202-.703 5.624-3.515 5.624-6.953 0-3.906-3.203-7.11-7.11-7.11s-7.109 3.204-7.109 7.11c0 3.047 1.954 5.625 4.61 6.64v16.017H3.593c-1.093 0-1.953.86-1.953 1.953s.86 1.953 1.953 1.953zm29.14 23.438c0 1.719-1.405 3.203-3.202 3.203s-3.203-1.406-3.203-3.203 1.406-3.203 3.203-3.203 3.203 1.406 3.203 3.203zm42.97 0c0 1.719-1.406 3.203-3.203 3.203s-3.203-1.406-3.203-3.203 1.406-3.203 3.203-3.203 3.203 1.406 3.203 3.203zm8.515-53.125c1.72 0 3.204 1.406 3.204 3.203s-1.407 3.203-3.204 3.203-3.203-1.406-3.203-3.203 1.485-3.203 3.203-3.203zm7.032-20.312c1.718 0 3.203 1.406 3.203 3.203s-1.406 3.203-3.203 3.203-3.203-1.406-3.203-3.203 1.484-3.203 3.203-3.203zM72.5 4.298c1.718 0 3.203 1.406 3.203 3.203s-1.406 3.203-3.203 3.203-3.203-1.406-3.203-3.203 1.484-3.203 3.203-3.203zM46.72 7.423c0-1.719 1.406-3.203 3.203-3.203s3.203 1.406 3.203 3.203-1.406 3.203-3.203 3.203S46.72 9.22 46.72 7.423zM31.095 25.47c-1.72 0-3.203-1.406-3.203-3.203s1.406-3.203 3.203-3.203 3.203 1.406 3.203 3.203-1.406 3.203-3.203 3.203zm29.688 13.984c1.718 0 3.203 1.406 3.203 3.203s-1.406 3.203-3.203 3.203-3.203-1.406-3.203-3.203 1.484-3.203 3.203-3.203zm-23.438 0c1.718 0 3.203 1.406 3.203 3.203s-1.407 3.203-3.203 3.203-3.203-1.406-3.203-3.203 1.484-3.203 3.203-3.203zm-23.438 0c1.718 0 3.203 1.406 3.203 3.203s-1.406 3.203-3.203 3.203-3.203-1.406-3.203-3.203 1.484-3.203 3.203-3.203z"></path></g><g id="SvgjsG8840" class="text" transform="translate(276.1740049182305, 73.89619548365431) scale(1)" light-content="false" fill="#000000"><path d="M-130.31 -31.27L-139.37 -31.27C-139.49 -31.27 -139.65 -31.16 -139.83 -30.94C-140.02 -30.73 -140.11 -30.26 -140.11 -29.54C-140.11 -28.74 -139.93 -28.34 -139.57 -28.34L-136.4 -28.34L-144.19 -7.23L-151.89 -27.32C-152 -27.54 -152.06 -27.71 -152.06 -27.84C-152.06 -28.17 -151.2 -28.34 -149.48 -28.34C-149.35 -28.34 -149.17 -28.45 -148.95 -28.68C-148.74 -28.91 -148.63 -29.39 -148.63 -30.12C-148.63 -30.89 -148.81 -31.27 -149.15 -31.27L-159.23 -31.27C-159.38 -31.27 -159.55 -31.16 -159.75 -30.93C-159.94 -30.71 -160.04 -30.26 -160.04 -29.58C-160.04 -28.75 -159.86 -28.34 -159.5 -28.34L-157.21 -28.34L-145.99 0C-145.86 0.28 -145.45 0.42 -144.77 0.42C-144.03 0.42 -143.61 0.28 -143.5 0L-133.05 -27.15C-132.77 -27.94 -132.11 -28.34 -131.06 -28.34C-130.67 -28.34 -130.41 -28.39 -130.29 -28.5C-129.96 -28.84 -129.79 -29.36 -129.79 -30.08C-129.79 -30.87 -129.96 -31.27 -130.31 -31.27Z M-123.75 0L-114.69 0C-114.57 0 -114.41 -0.11 -114.23 -0.32C-114.04 -0.54 -113.95 -1 -113.95 -1.72C-113.95 -2.53 -114.13 -2.93 -114.49 -2.93L-118.06 -2.93L-115.17 -10.37L-104.64 -10.37L-102.17 -3.95C-102.06 -3.73 -102 -3.55 -102 -3.43C-102 -3.1 -102.86 -2.93 -104.58 -2.93C-104.73 -2.93 -104.91 -2.81 -105.12 -2.58C-105.32 -2.34 -105.43 -1.86 -105.43 -1.14C-105.43 -0.38 -105.26 0 -104.91 0L-94.83 0C-94.7 0 -94.53 -0.11 -94.32 -0.32C-94.12 -0.54 -94.02 -0.99 -94.02 -1.68C-94.02 -2.51 -94.2 -2.93 -94.56 -2.93L-96.99 -2.93L-108.07 -31.27C-108.18 -31.54 -108.7 -31.68 -109.63 -31.68C-110.05 -31.68 -110.32 -31.54 -110.44 -31.27L-121.01 -4.11C-121.33 -3.32 -122 -2.93 -123.03 -2.93C-123.41 -2.93 -123.66 -2.87 -123.77 -2.76C-124.11 -2.43 -124.27 -1.9 -124.27 -1.18C-124.27 -0.39 -124.1 0 -123.75 0ZM-113.95 -13.57L-109.87 -24.04L-105.87 -13.57Z M-70.89 -2.93L-75.52 -2.93L-75.52 -13.07C-66.39 -13.07 -61.83 -16.26 -61.83 -22.64C-61.83 -25.32 -62.78 -27.42 -64.68 -28.96C-66.56 -30.48 -69.1 -31.25 -72.3 -31.27L-83.85 -31.27C-84.23 -31.27 -84.41 -30.86 -84.41 -30.04C-84.4 -29.85 -84.38 -29.65 -84.35 -29.46C-84.21 -28.71 -83.95 -28.34 -83.56 -28.34L-80.17 -28.34C-79.99 -28.34 -79.9 -28.23 -79.9 -28.03L-79.9 -3.82C-79.9 -3.49 -80.1 -3.26 -80.49 -3.14C-80.71 -3.07 -81.02 -3.02 -81.42 -2.99C-81.75 -2.95 -82.08 -2.93 -82.4 -2.93C-82.47 -2.93 -82.53 -2.94 -82.58 -2.95L-82.65 -2.95C-82.98 -2.95 -83.2 -2.89 -83.31 -2.78C-83.69 -2.41 -83.87 -1.89 -83.87 -1.23L-83.87 -1.16C-83.87 -0.39 -83.71 0 -83.37 0L-71.2 0C-71.05 0 -70.87 -0.11 -70.66 -0.33C-70.45 -0.55 -70.35 -1 -70.35 -1.66C-70.35 -2.51 -70.53 -2.93 -70.89 -2.93ZM-75.52 -16.27L-75.52 -28.07C-72.27 -28.07 -70 -27.67 -68.73 -26.88C-67.36 -26.04 -66.67 -24.47 -66.67 -22.17L-66.67 -22.1C-66.67 -19.82 -67.52 -18.23 -69.21 -17.33C-70.51 -16.63 -72.61 -16.28 -75.52 -16.27Z M-25.23 -11.53L-25.23 -28.34L-21.72 -28.34C-21.6 -28.34 -21.44 -28.44 -21.25 -28.64C-21.07 -28.84 -20.97 -29.27 -20.97 -29.94C-20.97 -30.82 -21.15 -31.27 -21.51 -31.27L-32.23 -31.27C-32.59 -31.27 -32.77 -30.86 -32.77 -30.04C-32.77 -29.85 -32.76 -29.65 -32.73 -29.46C-32.59 -28.71 -32.32 -28.34 -31.92 -28.34L-28.93 -28.34C-28.75 -28.34 -28.66 -28.23 -28.66 -28L-28.66 -11.95C-28.66 -8.86 -29.2 -6.6 -30.28 -5.17C-30.84 -4.44 -31.54 -3.9 -32.4 -3.54C-33.26 -3.19 -34.24 -3.01 -35.35 -3.01C-36.46 -3.01 -37.44 -3.16 -38.28 -3.47C-40.97 -4.44 -42.31 -7.29 -42.31 -12.01L-42.31 -28.34L-38.99 -28.34C-38.5 -28.34 -38.26 -28.83 -38.26 -29.81C-38.26 -30.78 -38.43 -31.27 -38.78 -31.27L-50.66 -31.27C-51.02 -31.27 -51.2 -30.84 -51.2 -30C-51.19 -29.83 -51.17 -29.65 -51.14 -29.46C-51 -28.71 -50.74 -28.34 -50.35 -28.34L-46.96 -28.34C-46.78 -28.34 -46.69 -28.23 -46.69 -28L-46.69 -11.82C-46.69 -7.69 -45.92 -4.67 -44.37 -2.74C-42.68 -0.64 -39.89 0.42 -36.02 0.42C-28.83 0.42 -25.23 -3.57 -25.23 -11.53Z M-4.13 -3.51C-3.75 -4.2 -3.55 -4.92 -3.55 -5.65C-3.55 -6.38 -3.86 -7.07 -4.47 -7.71C-5.08 -8.33 -5.83 -8.64 -6.73 -8.64C-7.62 -8.64 -8.37 -8.33 -9 -7.71C-9.62 -7.08 -9.93 -6.32 -9.93 -5.4C-9.93 -3.66 -8.76 -2.21 -6.42 -1.06C-4.41 -0.08 -2.23 0.42 0.12 0.42C3.19 0.42 5.71 -0.38 7.71 -1.98C9.7 -3.58 10.7 -5.66 10.7 -8.21C10.7 -10.44 9.93 -12.35 8.39 -13.94C7.16 -15.23 5.01 -16.63 1.95 -18.16L-0.85 -19.61C-1.71 -20.05 -2.43 -20.5 -3.01 -20.94C-4.22 -21.81 -4.82 -22.79 -4.82 -23.87L-4.82 -23.91C-4.81 -25.38 -4.23 -26.51 -3.1 -27.3C-2.54 -27.69 -1.89 -27.98 -1.14 -28.17C-0.39 -28.38 0.55 -28.48 1.7 -28.48C2.84 -28.48 3.82 -28.23 4.63 -27.73C4.23 -27.17 4.03 -26.52 4.03 -25.78C4.03 -24.88 4.34 -24.12 4.97 -23.5C5.57 -22.89 6.33 -22.58 7.23 -22.58C8.14 -22.58 8.9 -22.89 9.49 -23.5C10.1 -24.13 10.41 -24.9 10.41 -25.78C10.41 -27.64 9.31 -29.13 7.13 -30.25C5.3 -31.2 3.32 -31.68 1.18 -31.68L1 -31.68C-1.87 -31.68 -4.23 -31.05 -6.09 -29.79C-8.16 -28.38 -9.2 -26.39 -9.2 -23.83C-9.2 -20.49 -7.31 -17.82 -3.53 -15.83L-0.56 -14.31C0.38 -13.86 1.25 -13.39 2.06 -12.92C4.9 -11.29 6.32 -9.6 6.32 -7.85L6.32 -7.83C6.3 -6.31 5.69 -5.08 4.47 -4.15C3.88 -3.71 3.2 -3.38 2.41 -3.16C1.61 -2.91 0.54 -2.78 -0.79 -2.78C-2.12 -2.78 -3.23 -3.03 -4.13 -3.51Z M22.82 -29.96C22.84 -29.79 22.86 -29.61 22.89 -29.42C23.02 -28.7 23.29 -28.34 23.68 -28.34L27.08 -28.34C27.25 -28.34 27.33 -28.24 27.33 -28.05L27.33 -3.82C27.33 -3.49 27.14 -3.26 26.75 -3.14C26.53 -3.07 26.21 -3.02 25.79 -2.99C25.39 -2.95 25.01 -2.93 24.65 -2.93C24.28 -2.93 24.04 -2.87 23.95 -2.76C23.59 -2.35 23.41 -1.82 23.41 -1.18C23.41 -0.39 23.59 0 23.97 0L35.45 0C39.62 -0.01 43.11 -1.23 45.9 -3.66C49.08 -6.41 50.66 -10.42 50.66 -15.69L50.66 -15.75C50.65 -21.01 49.52 -24.87 47.28 -27.32C44.87 -29.95 40.93 -31.27 35.45 -31.27L23.36 -31.27C23 -31.27 22.82 -30.83 22.82 -29.96ZM31.72 -3.2L31.72 -28.07L35.29 -28.07C36.96 -28.07 38.45 -27.8 39.75 -27.26C43.8 -25.58 45.82 -21.5 45.82 -15.02C45.82 -11.24 44.66 -8.26 42.33 -6.09C40.25 -4.16 37.73 -3.2 34.77 -3.2Z M60.58 0L69.64 0C69.77 0 69.92 -0.11 70.11 -0.32C70.3 -0.54 70.39 -1 70.39 -1.72C70.39 -2.53 70.21 -2.93 69.85 -2.93L66.28 -2.93L69.16 -10.37L79.7 -10.37L82.17 -3.95C82.28 -3.73 82.34 -3.55 82.34 -3.43C82.34 -3.1 81.48 -2.93 79.76 -2.93C79.61 -2.93 79.43 -2.81 79.22 -2.58C79.01 -2.34 78.91 -1.86 78.91 -1.14C78.91 -0.38 79.08 0 79.43 0L89.5 0C89.64 0 89.81 -0.11 90.01 -0.32C90.21 -0.54 90.31 -0.99 90.31 -1.68C90.31 -2.51 90.13 -2.93 89.77 -2.93L87.34 -2.93L76.27 -31.27C76.16 -31.54 75.64 -31.68 74.71 -31.68C74.28 -31.68 74.01 -31.54 73.9 -31.27L63.33 -4.11C63.01 -3.32 62.34 -2.93 61.31 -2.93C60.92 -2.93 60.67 -2.87 60.56 -2.76C60.23 -2.43 60.06 -1.9 60.06 -1.18C60.06 -0.39 60.24 0 60.58 0ZM70.39 -13.57L74.46 -24.04L78.47 -13.57Z M115.59 -2.93L112.1 -2.93L112.1 -28.07L119.06 -28.07L119.97 -24.99C120.1 -24.63 120.43 -24.45 120.97 -24.45L121.09 -24.45C121.27 -24.45 121.45 -24.47 121.61 -24.51C122.37 -24.68 122.76 -25.01 122.76 -25.51L122.76 -25.59L121.97 -31.27L97.85 -31.27L97.06 -25.59L97.06 -25.51C97.06 -25.37 97.11 -25.23 97.22 -25.1C97.58 -24.68 98.11 -24.47 98.8 -24.45C99.37 -24.45 99.72 -24.63 99.84 -24.99L100.75 -28.07L107.71 -28.07L107.71 -3.82C107.71 -3.48 107.53 -3.25 107.15 -3.14C106.93 -3.07 106.62 -3.02 106.22 -2.99C105.89 -2.95 105.56 -2.93 105.24 -2.93C105.17 -2.93 105.11 -2.94 105.05 -2.95L104.99 -2.95C104.66 -2.95 104.44 -2.89 104.33 -2.78C103.95 -2.42 103.77 -1.89 103.77 -1.18C103.77 -0.39 103.93 0 104.27 0L115.3 0C115.44 0 115.61 -0.11 115.83 -0.32C116.04 -0.54 116.15 -0.94 116.15 -1.54C116.15 -2.47 115.96 -2.93 115.59 -2.93Z M130.33 0L139.39 0C139.51 0 139.67 -0.11 139.85 -0.32C140.04 -0.54 140.14 -1 140.14 -1.72C140.14 -2.53 139.96 -2.93 139.6 -2.93L136.02 -2.93L138.91 -10.37L149.44 -10.37L151.91 -3.95C152.03 -3.73 152.08 -3.55 152.08 -3.43C152.08 -3.1 151.22 -2.93 149.5 -2.93C149.35 -2.93 149.17 -2.81 148.96 -2.58C148.76 -2.34 148.65 -1.86 148.65 -1.14C148.65 -0.38 148.83 0 149.17 0L159.25 0C159.39 0 159.56 -0.11 159.76 -0.32C159.96 -0.54 160.06 -0.99 160.06 -1.68C160.06 -2.51 159.88 -2.93 159.52 -2.93L157.09 -2.93L146.01 -31.27C145.9 -31.54 145.38 -31.68 144.46 -31.68C144.03 -31.68 143.76 -31.54 143.65 -31.27L133.07 -4.11C132.75 -3.32 132.08 -2.93 131.06 -2.93C130.67 -2.93 130.42 -2.87 130.31 -2.76C129.98 -2.43 129.81 -1.9 129.81 -1.18C129.81 -0.39 129.98 0 130.33 0ZM140.14 -13.57L144.21 -24.04L148.22 -13.57Z"></path></g><rect id="SvgjsRect8841" width="344.7838387165043" height="3.781966000775303" fill="#000000" transform="translate(112.34137759078874, 27.573045128650477) scale(1)" light-content="false"></rect><rect id="SvgjsRect8842" width="344.7838387165043" height="3.781966000775303" fill="#000000" transform="translate(113.23557926058368, 85.04168310378336) scale(1)" light-content="false"></rect><rect id="SvgjsRect8843" width="4.179198045048537" height="31.343985337864027" fill="#000000" transform="translate(457.82080195495126, 43.29831227029217) scale(1)" light-content="false"></rect></g></g></svg>